<svg xmlns="http://www.w3.org/2000/svg" viewBox="0 0 620 180" width="620" height="180">
<g fill="none" stroke="#25269e" stroke-width="2.12" stroke-linecap="round" stroke-linejoin="round">
<path d="M 49.4 141.0 C 51.7 136.8, 62.7 116.4, 67.0 107.6 C 71.3 98.9, 79.0 74.2, 83.2 72.2 C 87.4 70.3, 100.3 85.0, 100.0 92.4 C 99.6 99.8, 86.0 124.0, 80.4 130.3 C 74.9 136.6, 59.7 141.5, 56.0 142.0 C 52.4 142.5, 48.7 139.7, 51.7 134.6 C 54.7 129.4, 72.1 112.7, 79.6 101.3 C 87.2 89.9, 105.3 54.4, 111.1 44.8 C 117.0 35.2, 125.4 17.6, 125.6 25.8 C 125.9 34.0, 117.2 91.5, 112.9 109.1 C 108.5 126.6, 92.0 158.8, 91.3 164.1 C 90.5 169.3, 101.0 157.8, 106.9 150.3 C 112.9 142.8, 133.3 110.1, 138.1 105.1 C 142.9 100.1, 143.3 108.7, 144.8 111.2 C 146.4 113.6, 148.4 123.4, 150.0 124.1 C 151.6 124.8, 155.8 114.9, 157.4 116.5 C 159.0 118.2, 161.1 137.2, 162.6 137.1 C 164.2 136.9, 167.6 115.9, 169.6 115.3 C 171.6 114.7, 176.3 133.5, 178.4 132.2 C 180.5 131.0, 184.3 106.0, 186.0 105.4 C 187.7 104.8, 190.1 125.2, 191.9 127.6 C 193.6 130.0, 198.6 123.8, 200.1 124.3 C 201.6 124.8, 202.8 133.1, 203.9 131.7 C 205.0 130.2, 207.5 113.0, 209.0 112.6 C 210.4 112.2, 208.1 127.0, 215.4 128.5 C 222.7 130.0, 251.5 124.6, 266.6 124.1 C 281.7 123.7, 317.5 124.6, 334.2 125.2 C 350.9 125.7, 390.1 128.0, 398.2 128.4"/>
</g></svg>