<svg xmlns="http://www.w3.org/2000/svg" viewBox="0 0 620 180" width="620" height="180">
<g fill="none" stroke="#25269e" stroke-width="2.44" stroke-linecap="round" stroke-linejoin="round">
<path d="M 39.5 107.2 C 41.9 101.1, 57.8 55.8, 63.4 45.9 C 68.9 36.0, 90.0 9.0, 95.3 7.8 C 100.6 6.5, 116.8 25.4, 116.7 33.6 C 116.7 41.8, 99.1 80.5, 94.6 90.5 C 90.1 100.4, 74.5 130.6, 71.4 133.5 C 68.4 136.5, 62.8 124.0, 64.1 120.2 C 65.5 116.3, 79.5 101.0, 84.9 95.0 C 90.3 88.9, 112.9 67.0, 118.5 59.8 C 124.1 52.7, 137.6 21.5, 141.0 23.3 C 144.4 25.2, 154.9 68.1, 153.0 78.3 C 151.1 88.5, 123.2 122.7, 122.1 126.0 C 120.9 129.3, 139.1 115.8, 141.8 111.2 C 144.5 106.6, 147.6 80.6, 148.8 79.7 C 150.0 78.9, 152.9 101.4, 154.2 102.6 C 155.5 103.8, 160.5 91.1, 161.8 91.8 C 163.1 92.5, 166.0 109.0, 167.3 109.5 C 168.6 110.0, 173.0 97.6, 174.6 96.8 C 176.3 95.9, 181.9 102.5, 184.0 100.7 C 186.0 98.9, 193.3 78.6, 195.3 78.6 C 197.3 78.6, 201.9 99.3, 204.0 100.9 C 206.1 102.4, 214.7 94.1, 216.3 94.1 C 218.0 94.2, 219.5 102.7, 220.5 101.6 C 221.4 100.5, 224.7 83.4, 225.9 83.0 C 227.2 82.6, 231.1 96.9, 232.9 97.4 C 234.6 98.0, 241.4 88.5, 243.3 88.7 C 245.1 88.9, 249.3 98.6, 251.3 99.2 C 253.2 99.8, 260.7 94.3, 262.5 94.6 C 264.3 94.8, 267.8 102.4, 269.4 101.8 C 271.0 101.2, 276.4 89.0, 278.5 88.3 C 280.5 87.7, 288.2 95.2, 290.0 95.3 C 291.9 95.4, 295.9 89.1, 297.1 89.6 C 298.4 90.1, 301.3 100.6, 302.6 100.4 C 303.9 100.2, 308.8 86.6, 310.3 87.6 C 311.8 88.5, 315.8 110.0, 317.5 110.0 C 319.2 109.9, 324.9 88.6, 327.0 87.4 C 329.2 86.1, 333.0 96.2, 339.2 97.5 C 345.3 98.8, 377.0 100.0, 388.4 100.5 C 399.7 100.9, 440.8 101.6, 453.4 101.8 C 466.0 102.0, 508.8 102.2, 514.9 102.3"/><path d="M 109.7 97.8 C 129.7 79.8, 154.7 72.8, 181.7 67.8" opacity="0.90"/>
</g></svg>