<svg xmlns="http://www.w3.org/2000/svg" viewBox="0 0 620 180" width="620" height="180">
<g fill="none" stroke="#161d8f" stroke-width="2.28" stroke-linecap="round" stroke-linejoin="round">
<path d="M 58.9 129.3 C 61.7 118.3, 77.8 48.4, 82.9 34.0 C 88.0 19.7, 99.5 5.4, 103.2 5.2 C 106.9 5.0, 116.2 21.2, 115.1 32.2 C 114.0 43.3, 98.5 87.6, 93.7 100.7 C 88.9 113.7, 76.9 141.9, 73.5 145.5 C 70.0 149.0, 62.5 136.6, 63.8 131.4 C 65.1 126.1, 77.5 107.1, 84.6 100.1 C 91.8 93.1, 118.3 70.8, 125.8 70.7 C 133.3 70.6, 146.0 96.8, 149.6 99.4 C 153.2 102.1, 155.4 92.1, 156.8 93.6 C 158.3 95.1, 160.9 111.1, 162.4 112.3 C 164.0 113.5, 168.6 104.4, 170.3 104.1 C 172.0 103.9, 175.2 111.2, 176.9 110.2 C 178.7 109.2, 183.4 95.9, 185.7 95.4 C 188.0 94.9, 195.0 105.8, 196.9 105.8 C 198.8 105.7, 201.3 94.5, 202.5 95.1 C 203.6 95.6, 205.6 109.6, 206.8 110.5 C 208.0 111.5, 211.5 102.8, 212.9 103.1 C 214.3 103.3, 217.2 113.4, 218.7 112.5 C 220.3 111.6, 224.4 96.1, 226.4 95.0 C 228.4 93.9, 234.3 104.1, 236.2 103.0 C 238.1 101.8, 241.3 84.5, 242.6 84.9 C 243.9 85.2, 246.1 104.3, 247.5 106.3 C 248.9 108.3, 253.1 102.1, 254.4 102.5 C 255.7 102.8, 257.5 110.6, 258.7 109.6 C 259.8 108.5, 262.9 93.9, 264.4 93.6 C 265.8 93.2, 269.7 106.5, 271.6 106.5 C 273.4 106.5, 278.4 93.6, 280.1 93.6 C 281.9 93.6, 284.9 105.3, 286.8 106.6 C 288.6 108.0, 294.4 103.5, 296.1 104.9 C 297.8 106.4, 300.1 119.4, 301.5 119.0 C 303.0 118.7, 306.8 102.2, 308.7 101.7 C 310.6 101.1, 315.8 114.9, 317.8 114.3 C 319.8 113.6, 324.3 96.4, 326.0 96.0 C 327.7 95.5, 330.5 109.0, 332.3 110.4 C 334.0 111.8, 337.4 108.1, 341.2 108.4 C 344.9 108.7, 358.4 111.6, 364.8 112.9 C 371.1 114.3, 389.0 119.2, 396.0 119.8 C 403.0 120.3, 422.1 117.8, 425.5 117.6"/><path d="M 139.0 108.5 C 159.0 90.5, 184.0 83.5, 211.0 78.5" opacity="0.94"/>
</g></svg>