<svg xmlns="http://www.w3.org/2000/svg" viewBox="0 0 620 180" width="620" height="180">
<g fill="none" stroke="#2026a5" stroke-width="2.62" stroke-linecap="round" stroke-linejoin="round">
<path d="M 41.3 135.7 C 44.7 131.0, 57.4 113.8, 64.3 103.9 C 71.2 93.9, 81.2 69.6, 88.3 67.6 C 95.4 65.6, 113.8 81.8, 112.9 90.4 C 112.0 99.0, 91.2 119.4, 82.3 126.2 C 73.5 133.0, 57.6 136.8, 52.5 137.1 C 47.4 137.3, 43.0 133.3, 47.4 127.9 C 51.9 122.6, 71.4 113.4, 82.8 100.5 C 94.2 87.6, 116.3 51.9, 124.9 39.9 C 133.6 27.8, 140.7 8.5, 141.9 18.4 C 143.1 28.4, 140.2 87.9, 133.4 107.7 C 126.6 127.5, 98.1 148.7, 95.5 153.4 C 92.8 158.1, 106.1 148.2, 115.3 139.8 C 124.5 131.5, 150.3 102.3, 158.1 96.6 C 166.0 90.9, 166.2 96.7, 169.0 101.0 C 171.9 105.3, 174.5 124.3, 177.5 126.1 C 180.4 127.9, 187.0 113.3, 189.3 113.4 C 191.6 113.4, 191.9 127.1, 193.2 126.6 C 194.5 126.0, 196.6 110.4, 198.3 109.5 C 200.0 108.5, 202.9 121.0, 204.7 120.1 C 206.6 119.2, 209.3 102.5, 210.9 103.3 C 212.5 104.2, 214.0 124.1, 215.6 125.9 C 217.3 127.7, 220.5 114.6, 222.3 115.6 C 224.1 116.6, 226.0 132.5, 227.9 132.7 C 229.8 132.9, 232.9 118.7, 235.3 116.8 C 237.8 114.8, 242.2 121.0, 244.7 119.4 C 247.3 117.9, 250.4 105.9, 252.4 106.2 C 254.4 106.5, 256.3 120.6, 258.3 121.4 C 260.4 122.1, 264.9 110.4, 266.7 111.5 C 268.5 112.6, 269.3 128.3, 270.7 128.9 C 272.0 129.5, 274.2 116.8, 276.0 115.6 C 277.7 114.3, 280.1 121.6, 282.7 120.2 C 285.3 118.9, 290.8 105.7, 293.7 106.4 C 296.5 107.2, 299.1 124.4, 302.1 125.5 C 305.1 126.7, 311.4 112.6, 314.0 114.2 C 316.6 115.7, 317.8 135.4, 319.8 135.9 C 321.7 136.3, 324.8 118.4, 327.3 117.0 C 329.9 115.5, 334.2 125.6, 337.0 126.1 C 339.8 126.6, 343.9 119.6, 346.4 120.3 C 348.8 120.9, 351.0 130.3, 353.6 130.7 C 356.1 131.0, 361.6 122.5, 363.8 122.9 C 365.9 123.3, 366.8 133.6, 368.4 133.3 C 370.0 133.1, 372.5 121.0, 374.5 121.1 C 376.5 121.1, 377.8 131.7, 382.3 133.9 C 386.8 136.2, 397.4 141.0, 405.2 136.6 C 413.1 132.3, 426.9 109.1, 435.6 104.4 C 444.2 99.6, 460.1 104.5, 464.3 104.5"/><path d="M 129.3 108.4 C 149.3 90.4, 174.3 83.4, 201.3 78.4" opacity="0.93"/>
</g></svg>