<svg xmlns="http://www.w3.org/2000/svg" width="607" height="196" viewBox="0 0 607 196" role="img" aria-label="Синтетический росчерк 236">
  <metadata>Synthetic non-person-specific signature flourish generated for UI sample library. ID 236.</metadata>
  <g fill="none" stroke="#183f99" stroke-width="3.20" stroke-linecap="round" stroke-linejoin="round" opacity="0.91">
    <path d="M 21.4,130.6 Q 37.0,95.2 51.2,118.4 Q 65.4,141.7 74.5,131.9 Q 83.5,122.0 97.8,140.1 Q 112.1,158.1 125.9,140.3 Q 139.6,122.5 153.2,132.1 Q 166.9,141.7 182.9,133.0 Q 199.0,124.2 214.8,135.5 Q 230.6,146.8 246.9,130.7 Q 263.3,114.6 275.6,132.9 Q 287.9,151.1 301.7,133.0 Q 315.4,115.0 328.7,131.1 Q 341.9,147.3 354.9,138.3 Q 367.8,129.3 385.3,134.0 Q 402.8,138.7 417.6,132.3 Q 432.4,125.9 445.7,118.2 Q 459.0,110.5 487.9,134.0 T 516.7,157.5" />
<path d="M 52.1,159.0 Q 254.5,159.1 456.9,160.1" />
  </g>
</svg>